<svg width="30" height="35" viewBox="0 0 30 35" xmlns="http://www.w3.org/2000/svg">
    <path d="M19.09 6.857a1.008 1.008 0 0 1-1.022-.995c0-.55.457-.994 1.023-.994.565 0 1.023.443 1.023.994 0 .55-.458.996-1.023.996zm-8.18 0a1.008 1.008 0 0 1-1.024-.995c0-.55.458-.994 1.023-.994.566 0 1.023.443 1.023.994 0 .55-.457.996-1.023.996zm8.785-3.986.381-.561.382-.552.85-1.242a.324.324 0 0 0-.097-.46.341.341 0 0 0-.47.093l-1.296 1.889-.39.568A11.478 11.478 0 0 0 15 1.881a11.486 11.486 0 0 0-4.056.725l-.387-.568-.383-.559L9.263.15a.35.35 0 0 0-.474-.093.328.328 0 0 0-.096.46l.85 1.242.38.552.383.56c-2.892 1.313-4.85 3.798-4.85 6.643h19.088c0-2.845-1.957-5.33-4.848-6.643h-.001zM5.602 10.839h-.146v14.599c0 1.16.967 2.103 2.16 2.103h1.558a1.869 1.869 0 0 0-.083.552v4.203c0 1.099.918 1.99 2.046 1.99 1.129 0 2.047-.891 2.047-1.99v-4.203c0-.193-.032-.377-.083-.552h3.798c-.053.179-.08.365-.08.552v4.203c0 1.099.915 1.99 2.044 1.99 1.13 0 2.048-.891 2.048-1.99v-4.203c0-.193-.031-.377-.085-.552h1.56c1.193 0 2.158-.943 2.158-2.103V10.839H5.603zm-3.556 0C.916 10.84 0 11.73 0 12.83v8.517c0 1.098.916 1.99 2.046 1.99 1.129 0 2.045-.892 2.045-1.99v-8.518c0-1.098-.916-1.989-2.045-1.989zm25.91 0c-1.131 0-2.047.89-2.047 1.99v8.517c0 1.098.916 1.99 2.047 1.99 1.128 0 2.044-.892 2.044-1.99v-8.518c0-1.098-.916-1.989-2.044-1.989z" fill="#95CF00" fill-rule="evenodd"/>
</svg>
