<svg width="30" height="37" viewBox="0 0 30 37" xmlns="http://www.w3.org/2000/svg">
    <path d="M20.42 5.877A8.07 8.07 0 0 0 22.373 0a8.18 8.18 0 0 0-5.527 2.8 7.683 7.683 0 0 0-1.843 5.693 6.798 6.798 0 0 0 5.417-2.616zm4.643 13.707a8.309 8.309 0 0 1 3.979-7.02 8.585 8.585 0 0 0-6.743-3.684c-2.874-.295-5.527 1.677-7.056 1.677-1.53 0-3.685-1.64-6.08-1.603a9.064 9.064 0 0 0-7.627 4.66c-3.243 5.638-.83 14.021 2.413 18.572 1.474 2.229 3.317 4.753 5.749 4.66 2.431-.091 3.224-1.51 6.042-1.51 2.82 0 3.685 1.51 6.08 1.455 2.395-.055 4.09-2.284 5.638-4.513A20.266 20.266 0 0 0 30 27.027a8.125 8.125 0 0 1-4.937-7.443z" fill="#000" fill-rule="nonzero"/>
</svg>
