<svg width="68" height="70" viewBox="0 0 68 70" xmlns="http://www.w3.org/2000/svg">
    <g fill-rule="nonzero" fill="none">
        <path fill="#D3D9EA" d="m66.356 15-6.875 3.75-7.5-3.75V5.625l6.875-4.375 7.5 4.375zM15.73 15l-6.874 3.75-7.5-3.75V5.625L8.23 1.25l7.5 4.375zM15.73 65l-6.874 3.75-7.5-3.75v-9.375L8.23 51.25l7.5 4.375zM66.356 65l-6.875 3.75-7.5-3.75v-9.375l6.875-4.375 7.5 4.375z"/>
        <path d="M67.086 15.143a1.25 1.25 0 0 0 .625-1.082V5.52a1.257 1.257 0 0 0-.625-1.083L59.69.168a1.25 1.25 0 0 0-1.25 0l-7.396 4.27a1.257 1.257 0 0 0-.625 1.082v3.02H17.293V5.52a1.258 1.258 0 0 0-.625-1.082L9.27.168a1.25 1.25 0 0 0-1.25 0L.625 4.437A1.257 1.257 0 0 0 0 5.52v8.54c0 .447.238.86.625 1.083l6.771 3.91v31.894l-6.771 3.91A1.255 1.255 0 0 0 0 55.938v8.54c0 .447.238.86.625 1.083l7.396 4.27a1.25 1.25 0 0 0 1.25 0l7.397-4.27a1.25 1.25 0 0 0 .625-1.082v-3.02h3.757a1.25 1.25 0 0 0 0-2.5h-3.757v-3.021c0-.446-.239-.859-.625-1.083l-6.772-3.909V19.053l6.772-3.91a1.25 1.25 0 0 0 .625-1.082v-3.02h33.126v3.02c0 .446.238.86.625 1.082l6.771 3.91v31.894l-6.771 3.91a1.253 1.253 0 0 0-.625 1.082v3.02H36.265a1.25 1.25 0 1 0 0 2.5H50.42v3.02c0 .447.238.86.625 1.083l7.396 4.27a1.25 1.25 0 0 0 1.25 0l7.396-4.27a1.25 1.25 0 0 0 .625-1.082v-8.541c0-.446-.238-.859-.625-1.083l-6.77-3.909V19.053l6.77-3.91zM8.646 2.693l4.897 2.827-4.897 2.827L3.75 5.52l4.896-2.827zm0 56.073L3.75 55.939l4.896-2.827 4.897 2.827-4.897 2.827zM2.5 7.686l4.846 2.797v5.654L2.5 13.34V7.685zm0 50.418 4.846 2.798v5.654L2.5 63.758v-5.654zm12.293 5.654-4.947 2.856V60.96l4.947-2.856v5.654zm0-50.419-4.947 2.856v-5.654l4.947-2.856v5.654zm44.272 45.427-4.896-2.827 4.896-2.827 4.896 2.827-4.896 2.827zm1.2-42.571v-5.654l4.946-2.856v5.654l-4.946 2.856zm-1.2-13.502 4.896 2.827-4.896 2.827L54.17 5.52l4.896-2.827zM52.92 7.685l4.846 2.798v5.654L52.92 13.34V7.685zm0 50.419 4.846 2.798v5.654l-4.846-2.798v-5.654zm7.346 8.51V60.96l4.946-2.856v5.654l-4.946 2.856z" fill="#14279B"/>
        <path d="M31.436 58.637a1.492 1.492 0 1 0-.002 2.984 1.492 1.492 0 0 0 .002-2.984zm-5.559 0a1.492 1.492 0 1 0-.002 2.984 1.492 1.492 0 0 0 .002-2.984z" fill="#FE5F55"/>
        <path fill="#5C7AEA" d="M20.637 42.632V27.368l13.219-7.632 13.219 7.632v15.264l-13.22 7.632z"/>
        <path d="M33.856 51.875a1.25 1.25 0 0 1-.625-.168l-13.532-7.812a1.25 1.25 0 0 1-.625-1.083V27.188c0-.447.238-.86.625-1.083l13.532-7.812a1.25 1.25 0 0 1 1.25 0l13.531 7.812c.387.223.625.636.625 1.082v15.625c0 .447-.238.86-.625 1.083l-13.531 7.812a1.25 1.25 0 0 1-.625.168zm-12.282-9.784 12.282 7.09 12.281-7.09V27.909l-12.281-7.09-12.282 7.09v14.182z" fill="#14279B"/>
        <path d="M45.25 28.432a1.25 1.25 0 0 0-1.707-.458l-9.669 5.583-9.706-5.604a1.25 1.25 0 1 0-1.25 2.165l9.706 5.604v11.111a1.25 1.25 0 0 0 2.5 0V35.722l9.67-5.583a1.25 1.25 0 0 0 .457-1.707z" fill="#FFF"/>
    </g>
</svg>
