<svg width="112" height="50" viewBox="0 0 112 50" xmlns="http://www.w3.org/2000/svg">
    <defs>
        <linearGradient x1="10.393%" y1="87.554%" x2="175.23%" y2="-67.367%" id="tmb0prbuya">
            <stop stop-color="#825EF6" offset="17%"/>
            <stop stop-color="#3721B7" offset="58%"/>
        </linearGradient>
        <linearGradient x1="-3265.791%" y1="989.506%" x2="-3016.595%" y2="753.06%" id="2vf4xhi6qb">
            <stop stop-color="#825EF6" offset="17%"/>
            <stop stop-color="#3721B7" offset="58%"/>
        </linearGradient>
        <linearGradient x1="-698.5%" y1="626%" x2="10272.5%" y2="-7818%" id="j1sao9tlmd">
            <stop stop-color="#3C32A3" offset="15%"/>
            <stop stop-color="#09067C" offset="70%"/>
        </linearGradient>
        <linearGradient x1="-9200%" y1="7181.5%" x2="1771%" y2="-1262.5%" id="5gnfuspzbe">
            <stop stop-color="#3C32A3" offset="15%"/>
            <stop stop-color="#09067C" offset="70%"/>
        </linearGradient>
        <radialGradient cx="80.346%" cy="71.879%" fx="80.346%" fy="71.879%" r="51.902%" gradientTransform="matrix(1 0 0 .9304 0 .05)" id="nm9jqdolnc">
            <stop stop-color="#3721B7" offset="0%"/>
            <stop stop-color="#825EF6" offset="62%"/>
        </radialGradient>
    </defs>
    <g fill="none" fill-rule="evenodd">
        <path d="M33.932 32.434h-7.849V17.578h7.758l-.545-.65L27 10.635a2.83 2.83 0 0 0-4 0L10.633 23a2.83 2.83 0 0 0 0 4L23 39.368c.98.981 2.501 1.09 3.604.329l7.329-7.262v-.001zM59.126 11.934l-1.3-1.301a2.83 2.83 0 0 0-4.002 0l-6.944 6.944h17.762l-5.516-5.644zM53.825 39.367a2.83 2.83 0 0 0 4.001 0l6.934-6.933H46.892l6.933 6.933zM87.796 32.434H77.523l6.934 6.933a2.83 2.83 0 0 0 4 0L100.825 27a2.83 2.83 0 0 0 0-4L88.458 10.633a2.83 2.83 0 0 0-4.001 0l-6.944 6.944h10.283v14.856z"/>
        <path fill="#825EF6" fill-rule="nonzero" d="m34.312 32.434 6.1 6.101-2.893 2.893 2.894-2.893-6.101-6.101z"/>
        <path fill="#3C32A3" fill-rule="nonzero" d="m64.832 32.434.732.732 5.55 5.44-8.133 8.186 8.16-8.16-6.198-6.198z"/>
        <path d="M108.665 18.26 93.197 2.794a9.53 9.53 0 0 0-13.48 0l-8.576 8.576 6.209 6.209h.163l6.944-6.944a2.83 2.83 0 0 1 4 0L100.825 23a2.83 2.83 0 0 1 0 4L88.458 39.368a2.83 2.83 0 0 1-4.001 0l-6.934-6.933h-12.58l6.198 6.197 8.577 8.576a9.53 9.53 0 0 0 13.479 0l15.468-15.468a9.53 9.53 0 0 0 0-13.479z" fill="#42D3D8" fill-rule="nonzero"/>
        <path d="M26.603 39.696c.14-.097.273-.205.396-.329l6.934-6.933h-.002l-7.33 7.262h.002z" fill="url(#tmb0prbuya)" fill-rule="nonzero"/>
        <path fill="url(#2vf4xhi6qb)" fill-rule="nonzero" d="m32.67 46.277 4.85-4.85-4.85 4.85z"/>
        <path d="M34.312 32.434h-.378L27 39.367a2.86 2.86 0 0 1-.396.329l6.067 6.581 4.85-4.85 2.892-2.892-6.101-6.101z" fill="#825EF6" fill-rule="nonzero"/>
        <path d="M33.934 32.434 27 39.367a2.828 2.828 0 0 1-4 0L10.633 27a2.83 2.83 0 0 1 0-4L23 10.633a2.83 2.83 0 0 1 4 0l6.296 6.295.545.649h12.68l-6.11-6.112-8.672-8.673a9.53 9.53 0 0 0-13.48 0L2.793 18.26a9.53 9.53 0 0 0 0 13.479L18.26 47.206a9.53 9.53 0 0 0 13.479 0l.93-.93L29.5 42.84l3.168 3.437 4.85-4.85 2.892-2.892-6.101-6.101h-.378.002z" fill="url(#nm9jqdolnc)" fill-rule="nonzero"/>
        <path d="m71.141 11.369-8.576-8.576a9.53 9.53 0 0 0-13.479 0l-8.673 8.673 6.109 6.112h.36l6.943-6.944a2.83 2.83 0 0 1 4.001 0l1.301 1.3 5.516 5.645H77.35l-6.209-6.21z" fill="#3C32A3" fill-rule="nonzero"/>
        <path fill="url(#j1sao9tlmd)" fill-rule="nonzero" d="m62.98 46.798.003-.004-.003.004z"/>
        <path fill="#3C32A3" fill-rule="nonzero" d="m65.564 33.166-.732-.732h-.06l-3.398 3.399-3.428 3.428 5.032 7.535.003-.004 8.134-8.187z"/>
        <path d="m65.564 33.166-.732-.732h-.073l-6.934 6.933a2.83 2.83 0 0 1-4 0l-6.934-6.933H34.31l6.1 6.101 8.674 8.673a9.53 9.53 0 0 0 13.48 0l.412-.412.004-.004 8.134-8.187-5.55-5.439z" fill="#7268D9" fill-rule="nonzero"/>
        <path fill="#FFF" fill-rule="nonzero" d="M64.774 32.437h.062l-.031-.03z"/>
        <path fill="url(#5gnfuspzbe)" fill-rule="nonzero" d="M64.774 32.437h.062l-.031-.03z"/>
        <g fill-rule="nonzero">
            <path d="M28.777 25.37a2.69 2.69 0 0 1 .603 1.747c0 .93-.31 1.664-.932 2.203-.622.538-1.523.806-2.704.806h-4.75V19.06h4.657c1.117 0 1.977.245 2.578.736.6.492.901 1.181.901 2.069 0 .69-.18 1.253-.54 1.693-.36.438-.833.727-1.418.862.668.136 1.204.452 1.606.948v.002zm-5.572-1.67h1.991c.554 0 .974-.122 1.261-.368.288-.245.431-.598.431-1.057 0-.46-.14-.815-.423-1.066-.283-.25-.715-.375-1.3-.375h-1.96v2.868-.001zm3.448 4.241c.313-.256.47-.63.47-1.12 0-.491-.16-.87-.477-1.136-.32-.266-.772-.4-1.357-.4h-2.084v3.041h2.1c.585 0 1.035-.127 1.348-.384z" fill="#825EF6"/>
            <path d="M74.667 19.626a5.224 5.224 0 0 1 1.99 2.013c.486.862.729 1.837.729 2.923 0 1.087-.243 2.065-.729 2.932a5.22 5.22 0 0 1-1.99 2.022c-.842.48-1.779.721-2.814.721-1.035 0-1.972-.24-2.813-.72a5.21 5.21 0 0 1-1.991-2.023c-.486-.867-.729-1.844-.729-2.932 0-1.087.243-2.06.729-2.923a5.226 5.226 0 0 1 1.99-2.013c.842-.48 1.78-.721 2.814-.721 1.035 0 1.973.24 2.814.72zm-4.522 1.755a3 3 0 0 0-1.152 1.262c-.277.549-.416 1.189-.416 1.92 0 .73.138 1.371.416 1.92.277.549.661.97 1.152 1.261.49.293 1.06.439 1.708.439.648 0 1.218-.147 1.709-.439.49-.292.875-.713 1.152-1.261.277-.549.415-1.19.415-1.92 0-.732-.138-1.372-.415-1.92a3.006 3.006 0 0 0-1.152-1.262c-.492-.292-1.06-.439-1.709-.439-.647 0-1.217.147-1.708.439zM60.174 17.31a7.677 7.677 0 0 1 2.923 2.962c.713 1.267 1.07 2.701 1.07 4.299 0 1.597-.357 3.035-1.07 4.311-.714 1.276-1.69 2.268-2.923 2.974-1.236.707-2.612 1.06-4.132 1.06-1.52 0-2.897-.353-4.132-1.06-1.236-.706-2.21-1.698-2.923-2.974-.714-1.276-1.07-2.712-1.07-4.311 0-1.6.356-3.032 1.07-4.3a7.68 7.68 0 0 1 2.923-2.96c1.235-.707 2.613-1.061 4.132-1.061 1.52 0 2.898.354 4.132 1.06zm-6.631 2.513c-.72.438-1.28 1.067-1.685 1.888-.405.822-.608 1.78-.608 2.872 0 1.093.202 2.053.608 2.874.405.82.967 1.45 1.685 1.887.718.438 1.551.656 2.499.656.947 0 1.78-.22 2.498-.656.718-.437 1.28-1.067 1.685-1.887.405-.821.608-1.78.608-2.874s-.203-2.052-.608-2.872c-.405-.82-.967-1.45-1.685-1.888-.719-.437-1.55-.656-2.498-.656-.948 0-1.781.219-2.5.656zM42.386 19.626a5.224 5.224 0 0 1 1.99 2.013c.486.862.728 1.837.728 2.923 0 1.087-.242 2.065-.728 2.932a5.22 5.22 0 0 1-1.99 2.022c-.842.48-1.779.721-2.814.721-1.035 0-1.973-.24-2.814-.72a5.21 5.21 0 0 1-1.99-2.023c-.487-.867-.73-1.844-.73-2.932 0-1.087.243-2.06.73-2.923a5.226 5.226 0 0 1 1.99-2.013c.841-.48 1.78-.721 2.814-.721 1.035 0 1.973.24 2.814.72zm-4.522 1.755a3 3 0 0 0-1.152 1.262c-.277.549-.416 1.189-.416 1.92 0 .73.138 1.371.416 1.92.277.549.66.97 1.152 1.261.49.293 1.06.439 1.708.439.648 0 1.218-.147 1.708-.439.491-.292.876-.713 1.152-1.261.277-.549.416-1.19.416-1.92 0-.732-.139-1.372-.416-1.92a3.006 3.006 0 0 0-1.152-1.262c-.491-.292-1.06-.439-1.708-.439-.648 0-1.217.147-1.708.439z" fill="#3C32A3"/>
            <path fill="#42D3D8" d="M94.807 19.186v10.941h-2.195v-7.633l-2.806 7.633h-1.912l-2.806-7.602v7.602h-2.21v-10.94h2.68l3.323 8.228 3.26-8.229h2.665z"/>
        </g>
    </g>
</svg>
