<svg width="70" height="70" viewBox="0 0 70 70" xmlns="http://www.w3.org/2000/svg">
    <g fill="none" fill-rule="evenodd">
        <path d="M24.15 2.8a2.8 2.8 0 1 0-5.6 0v6.36l5.6-.007V2.8z" fill="#42D3D8" fill-rule="nonzero"/>
        <path d="M30.1 30.1a4.9 4.9 0 1 1 9.8 0 4.9 4.9 0 0 1-9.8 0z" fill="#825EF6" fill-rule="nonzero"/>
        <path d="m15.423 11.965 39.192-.055a3.493 3.493 0 0 1 3.499 3.496l-.016 39.193a3.507 3.507 0 0 1-3.502 3.504l-39.192.054a3.493 3.493 0 0 1-3.498-3.495l.016-39.193a3.507 3.507 0 0 1 3.501-3.504zM42.7 30.1a7.684 7.684 0 0 1-2.81 5.948c4.134 1.865 7.01 6.023 7.01 10.852a1.4 1.4 0 0 1-2.8 0 9.1 9.1 0 0 0-9.1-9.1 9.1 9.1 0 0 0-9.1 9.1 1.4 1.4 0 0 1-2.8 0c0-4.83 2.877-8.987 7.01-10.852A7.7 7.7 0 1 1 42.7 30.1z" fill="#825EF6"/>
        <path d="M9.12 18.55H2.8a2.8 2.8 0 1 0 0 5.6h6.318l.002-5.6zM9.115 31.85H2.8a2.8 2.8 0 1 0 0 5.6h6.313l.002-5.6zM9.11 45.85H2.8a2.8 2.8 0 1 0 0 5.6h6.307l.002-5.6zM18.55 60.953V67.2a2.8 2.8 0 1 0 5.6 0v-6.255l-5.6.008zM32.55 60.934V67.2a2.8 2.8 0 1 0 5.6 0v-6.274l-5.6.007zM45.85 60.915V67.2a2.8 2.8 0 1 0 5.6 0v-6.293l-5.6.008zM60.9 51.45h6.3a2.8 2.8 0 1 0 0-5.6h-6.299l-.002 5.6zM60.905 37.45H67.2a2.8 2.8 0 1 0 0-5.6h-6.293l-.002 5.6zM60.91 24.15h6.29a2.8 2.8 0 1 0 0-5.6h-6.287l-.002 5.6zM51.45 9.115V2.8a2.8 2.8 0 1 0-5.6 0v6.322l5.6-.007zM38.15 9.134l-5.6.007V2.8a2.8 2.8 0 1 1 5.6 0v6.334z" fill="#42D3D8" fill-rule="nonzero"/>
    </g>
</svg>
