<svg width="74" height="68" viewBox="0 0 74 68" xmlns="http://www.w3.org/2000/svg">
    <path d="M8.364 52.91a6.364 6.364 0 1 1 0 12.726 6.364 6.364 0 0 1 0-12.727zm19.09-12.728a6.364 6.364 0 0 1 6.364 6.363v12.728a6.364 6.364 0 1 1-12.727 0V46.545a6.364 6.364 0 0 1 6.364-6.363zM46.546 21.09a6.364 6.364 0 0 1 6.364 6.364v31.818a6.364 6.364 0 1 1-12.727 0V27.455a6.364 6.364 0 0 1 6.363-6.364zM65.636 2A6.364 6.364 0 0 1 72 8.364v50.909a6.364 6.364 0 1 1-12.727 0V8.363A6.364 6.364 0 0 1 65.636 2z" fill="#825EF6" fill-rule="nonzero" stroke="#FFF" stroke-width="3"/>
</svg>
