<svg width="69" height="70" viewBox="0 0 69 70" xmlns="http://www.w3.org/2000/svg">
    <g fill-rule="nonzero" fill="none">
        <path fill="#D3D9EA" d="M62.175 36.091h4.861V51.47h-4.861zM28.943 18.049l3.8-2.816h24.218l1.024 2.816zM27.688 17.401 52.895 6.306l-1.09-2.74L20.99 17.401zM1.534 11.035h6.683v57.867H1.534z"/>
        <circle fill="#5C7AEA" cx="25.011" cy="43.559" r="15.687"/>
        <path d="m23.715 38.664-1.8-4.164L15 50.5h3.458l3.457-7.784 1.8-4.052zm5.576 0-1.8-4.164-6.917 16h3.459l3.458-7.784 1.919 4.325H25.76l1.73 3.459h6.915L29.29 38.664z" fill="#FFF"/>
        <path d="M64.692 54.815a1.514 1.514 0 1 0 .003 3.027 1.514 1.514 0 0 0-.003-3.027zm0 5.808a1.514 1.514 0 1 0 .003 3.027 1.514 1.514 0 0 0-.003-3.027z" fill="#FE5F55"/>
        <path d="m65.997 34.537-.051-13.876a3.583 3.583 0 0 0-3.613-3.543h-3.244l-6.57-14.994A3.552 3.552 0 0 0 47.848.298L26.792 9.522c-.215-.054-.015-.034-23.244-.034A3.552 3.552 0 0 0 0 13.036v53.42A3.583 3.583 0 0 0 3.613 70h58.72a3.583 3.583 0 0 0 3.613-3.544 1.099 1.099 0 0 0-2.197 0 1.384 1.384 0 0 1-1.416 1.346H3.613a1.384 1.384 0 0 1-1.416-1.346V20.66a1.384 1.384 0 0 1 1.416-1.346h58.72a1.385 1.385 0 0 1 1.416 1.35l.05 13.673h-9.23a6.9 6.9 0 0 0-6.892 6.893v4.656a6.9 6.9 0 0 0 6.893 6.893h10.27a3.457 3.457 0 0 0 3.454-3.453V37.79a3.458 3.458 0 0 0-2.297-3.254zm-9.303-17.41-25.257-.004L52.625 7.84l4.07 9.288zM48.728 2.312a1.352 1.352 0 0 1 1.78.694l1.236 2.822-25.78 11.295-11.038-.002L48.728 2.31zM2.198 17.4v-4.365c0-.746.604-1.35 1.35-1.35h18.306L9.452 17.118l-5.839-.001c-.486-.001-.967.095-1.416.283zm63.898 31.926c0 .693-.562 1.254-1.255 1.255H54.57a4.7 4.7 0 0 1-4.696-4.695V41.23a4.7 4.7 0 0 1 4.696-4.696h10.27c.694 0 1.256.563 1.256 1.256v11.536z" fill="#14279B"/>
        <path d="M8.217 43.559c0 9.275 7.52 16.794 16.794 16.794 9.275 0 16.794-7.52 16.794-16.794 0-9.275-7.519-16.794-16.794-16.794-9.27.01-16.783 7.523-16.794 16.794zm31.39 0c0 8.061-6.534 14.596-14.596 14.596-8.061 0-14.596-6.535-14.596-14.596 0-8.062 6.535-14.597 14.596-14.597 8.058.01 14.588 6.539 14.597 14.597zM55.15 40.214a3.345 3.345 0 1 0 0 6.69 3.345 3.345 0 0 0 0-6.69zm0 4.492a1.148 1.148 0 1 1 0-2.295 1.148 1.148 0 0 1 0 2.295z" fill="#14279B"/>
    </g>
</svg>
