<svg width="111" height="30" viewBox="0 0 111 30" xmlns="http://www.w3.org/2000/svg">
    <defs>
        <linearGradient x1="63.947%" y1="34.901%" x2="38.179%" y2="56.203%" id="mbpvrt72ua">
            <stop stop-color="#4223ED" offset="0%"/>
            <stop stop-color="#825EF6" offset="99%"/>
        </linearGradient>
        <linearGradient x1="45.832%" y1="49.737%" x2="23.706%" y2="68.259%" id="g3ntuiy2rb">
            <stop stop-color="#42D3D8" offset="0%"/>
            <stop stop-color="#11AFB7" offset="99%"/>
        </linearGradient>
    </defs>
    <g fill-rule="nonzero" fill="none">
        <path d="M21.285 2.23a2.367 2.367 0 1 1 .002 4.734 2.367 2.367 0 0 1-.002-4.734zm0-2.23a4.605 4.605 0 0 0-4.597 4.598 4.603 4.603 0 0 0 4.597 4.598 4.602 4.602 0 0 0 4.598-4.598A4.602 4.602 0 0 0 21.285 0z" fill="#3C32A3"/>
        <path d="M8.976 6.953A2.383 2.383 0 0 1 6.87 4.71a2.369 2.369 0 0 1 4.14-1.677c.299.34.767.468 1.189.308.037-.015.074-.027.109-.042.674-.258.904-1.11.44-1.66A4.59 4.59 0 0 0 8.687.031a4.611 4.611 0 0 0-4.023 4.043 4.603 4.603 0 0 0 4.568 5.119 4.6 4.6 0 0 0 4.061-2.447c.384-.723-.16-1.593-.976-1.598h-.024c-.4-.004-.78.206-.97.56a2.365 2.365 0 0 1-2.347 1.244zM18.217 16.314l-4.542-4.544a5.313 5.313 0 0 0-3.783-1.567 5.318 5.318 0 0 0-3.783 1.567l-4.545 4.544a5.359 5.359 0 0 0 0 7.568l2.746 2.744 1.799 1.798a5.313 5.313 0 0 0 3.783 1.567c.074 0 .144 0 .215-.006a5.315 5.315 0 0 0 3.57-1.562l4.542-4.543a5.36 5.36 0 0 0 0-7.568l-.002.002zm-7.544 9.109a1.086 1.086 0 0 1-.243.18c-.011.01-.026.015-.037.02a.918.918 0 0 1-.06.03c-.017.01-.034.015-.054.022l-.022.01s-.008 0-.017.005c-.005 0-.011.004-.017.005a.254.254 0 0 1-.053.015c-.007 0-.015.004-.024.006l-.039.009a.4.4 0 0 1-.092.015c-.016 0-.033.003-.051.005-.026 0-.05.004-.074.004h-.004c-.147 0-.296-.032-.435-.092a1.093 1.093 0 0 1-.344-.233L6.569 22.89l-2.006-2.007a1.108 1.108 0 0 1 0-1.564l4.544-4.545a1.104 1.104 0 0 1 1.562 0l4.543 4.545a1.1 1.1 0 0 1 .116 1.422.822.822 0 0 1-.116.14l-4.539 4.543z" fill="#825EF6"/>
        <path d="M18.693 23.335a4.927 4.927 0 0 1-.478.547l-4.542 4.542a5.315 5.315 0 0 1-3.785 1.569 5.315 5.315 0 0 1-3.783-1.567l-1.799-1.798a40.445 40.445 0 0 1 2.263-3.741l2.538 2.536c.101.101.22.18.344.232.139.06.288.092.435.092h.004c.026 0 .05 0 .074-.004.016 0 .033-.003.051-.005l.092-.015.04-.01c.008 0 .016-.003.023-.005a.796.796 0 0 0 .053-.014c.008 0 .012-.004.017-.006l.017-.006.022-.009c.018-.007.035-.013.053-.022.02-.01.04-.016.061-.03.011-.005.026-.01.037-.02a1.17 1.17 0 0 0 .243-.18l4.542-4.543c.045-.044.083-.092.117-.14l.906.14 2.457 2.455-.002.002z" fill="url(#mbpvrt72ua)"/>
        <path d="m29.891 16.314-4.544-4.542a5.315 5.315 0 0 0-3.783-1.569 5.312 5.312 0 0 0-3.783 1.569l-2.051 2.052 2.49 2.49c.174.173.33.356.476.547l2.088-2.086a1.104 1.104 0 0 1 1.565 0l4.542 4.543a1.104 1.104 0 0 1 0 1.564l-4.542 4.542a1.108 1.108 0 0 1-1.565 0l-2.086-2.085-2.456-2.455a1.093 1.093 0 0 1-.32-.813c-.196-.208-.397-.416-.59-.619a1.098 1.098 0 0 0-.113-.132l-.562-.56c-.02-.021-.04-.043-.059-.061-1.026-1.045-1.832-1.834-1.832-1.834a5.319 5.319 0 0 0-1.089 3.238c0 1.185.384 2.31 1.091 3.237.144.192.304.374.478.548l3.396 3.396 1.146 1.148A5.315 5.315 0 0 0 21.57 30a5.312 5.312 0 0 0 3.783-1.568l4.544-4.544a5.359 5.359 0 0 0 0-7.568l-.007-.006z" fill="#3C32A3"/>
        <path d="m41.664 16.314-4.542-4.54a5.306 5.306 0 0 0-1.872-1.217 5.302 5.302 0 0 0-1.911-.352c-1.43 0-2.774.559-3.783 1.569l-2.103 2.1 2.44 2.44c.191.192.367.394.521.606l2.143-2.143c.216-.217.5-.324.782-.324a1.1 1.1 0 0 1 .781.324l4.542 4.543a1.108 1.108 0 0 1 0 1.564l-4.542 4.542a1.107 1.107 0 0 1-1.563 0l-1.925-1.923v-.004l-.22-.218-2.397-2.397a1.1 1.1 0 0 1-.32-.71c-.227-.239-.458-.475-.68-.703a.854.854 0 0 0-.124-.151l-1.144-1.143-.214-.216-.2-.2c-.38-.384-.664-.666-.78-.778l-.06-.06a5.372 5.372 0 0 0 0 6.36c.157.21.33.413.522.603l2.44 2.44 1.02 1.02 1.082 1.082a5.315 5.315 0 0 0 3.784 1.568 5.32 5.32 0 0 0 3.783-1.568l4.542-4.544a5.359 5.359 0 0 0 0-7.568l-.002-.002z" fill="#42D3D8"/>
        <path d="M33.339 14.451c-.284 0-.566.107-.782.324l-2.143 2.143a5.535 5.535 0 0 0-.521-.606l-2.44-2.44 2.103-2.1a5.315 5.315 0 0 1 3.783-1.569c.663 0 1.31.12 1.91.352 2.076 2.035-1.91 3.894-1.91 3.894v.002z" fill="url(#g3ntuiy2rb)"/>
        <path d="M31.245 3.487a2.37 2.37 0 0 1 2.35-1.244A2.383 2.383 0 0 1 35.7 4.485a2.369 2.369 0 0 1-4.14 1.677 1.073 1.073 0 0 0-1.189-.307c-.037.014-.074.027-.109.042-.674.258-.905 1.11-.44 1.66a4.592 4.592 0 0 0 4.061 1.607 4.611 4.611 0 0 0 4.023-4.043 4.605 4.605 0 0 0-4.57-5.12 4.6 4.6 0 0 0-4.061 2.446c-.384.723.16 1.593.976 1.598h.024c.4.004.78-.206.97-.56v.002z" fill="#42D3D8"/>
        <g fill="#000">
            <path d="M54.1 22V7.454h6.066c1.09 0 2.002.154 2.738.462.736.308 1.29.739 1.662 1.293.372.554.558 1.195.558 1.924 0 .554-.116 1.048-.348 1.481a3.053 3.053 0 0 1-.96 1.076 3.83 3.83 0 0 1-1.413.597v.142c.588.028 1.13.187 1.63.476s.901.69 1.204 1.204c.303.513.455 1.12.455 1.821 0 .782-.2 1.479-.597 2.092-.398.613-.973 1.096-1.726 1.449-.752.353-1.666.529-2.741.529H54.1zm3.517-2.834h2.173c.762 0 1.324-.144 1.687-.433.362-.289.543-.691.543-1.207 0-.375-.088-.698-.263-.97a1.722 1.722 0 0 0-.746-.632c-.322-.15-.707-.224-1.157-.224h-2.237v3.466zm0-5.731h1.946c.383 0 .724-.064 1.022-.192.299-.128.532-.313.7-.554a1.49 1.49 0 0 0 .252-.874c0-.487-.173-.87-.518-1.15-.346-.28-.813-.42-1.4-.42h-2.002v3.19zM73.008 22.206c-1.146 0-2.13-.236-2.951-.707a4.793 4.793 0 0 1-1.896-1.974c-.443-.845-.665-1.827-.665-2.944 0-1.122.222-2.106.665-2.951a4.793 4.793 0 0 1 1.896-1.975c.821-.47 1.805-.706 2.95-.706 1.147 0 2.13.235 2.952.706a4.793 4.793 0 0 1 1.896 1.975c.443.845.664 1.829.664 2.95 0 1.118-.221 2.1-.664 2.945a4.793 4.793 0 0 1-1.896 1.974c-.822.471-1.805.707-2.951.707zm.021-2.62c.417 0 .77-.129 1.058-.384.29-.256.51-.611.664-1.066.154-.454.231-.98.231-1.576 0-.606-.077-1.137-.23-1.591-.154-.455-.376-.81-.665-1.066a1.54 1.54 0 0 0-1.058-.383c-.43 0-.794.128-1.09.383-.296.256-.52.611-.675 1.066-.154.454-.23.985-.23 1.59 0 .597.076 1.123.23 1.577.154.455.379.81.675 1.066.296.255.66.383 1.09.383zM85.928 22.206c-1.146 0-2.13-.236-2.951-.707a4.793 4.793 0 0 1-1.897-1.974c-.442-.845-.664-1.827-.664-2.944 0-1.122.222-2.106.664-2.951a4.793 4.793 0 0 1 1.897-1.975c.821-.47 1.805-.706 2.95-.706 1.146 0 2.13.235 2.952.706a4.793 4.793 0 0 1 1.896 1.975c.443.845.664 1.829.664 2.95 0 1.118-.221 2.1-.664 2.945a4.793 4.793 0 0 1-1.896 1.974c-.822.471-1.806.707-2.951.707zm.02-2.62c.417 0 .77-.129 1.06-.384.288-.256.51-.611.663-1.066.154-.454.23-.98.23-1.576 0-.606-.076-1.137-.23-1.591-.154-.455-.375-.81-.664-1.066a1.54 1.54 0 0 0-1.058-.383c-.431 0-.794.128-1.09.383-.296.256-.521.611-.675 1.066-.154.454-.23.985-.23 1.59 0 .597.076 1.123.23 1.577.154.455.379.81.675 1.066.296.255.659.383 1.09.383zM93.755 22V11.09h3.302v2.004h.121c.227-.663.611-1.186 1.15-1.57.54-.383 1.184-.575 1.933-.575.757 0 1.406.194 1.946.582.54.388.883.91 1.03 1.563h.113c.204-.649.601-1.169 1.193-1.56.592-.39 1.29-.585 2.095-.585 1.033 0 1.87.33 2.515.99.644.661.966 1.567.966 2.717V22h-3.473v-6.548c0-.545-.14-.96-.42-1.247-.279-.286-.641-.43-1.086-.43-.478 0-.854.156-1.126.466-.272.31-.408.725-.408 1.246V22h-3.338v-6.584c0-.506-.138-.907-.412-1.2-.275-.294-.637-.44-1.087-.44-.303 0-.57.072-.802.216-.232.145-.414.35-.544.614-.13.266-.195.578-.195.938V22h-3.473z"/>
        </g>
    </g>
</svg>
