<svg width="71" height="70" viewBox="0 0 71 70" xmlns="http://www.w3.org/2000/svg">
    <g fill-rule="nonzero" fill="none">
        <path d="M51.165 41.633c3.228 0 5.83-2.693 5.83-6.013s-2.617-6.013-5.83-6.013c-3.228 0-5.83 2.692-5.83 6.013-.015 3.32 2.602 6.013 5.83 6.013zM20.564 29.285c3.228 0 5.83-2.693 5.83-6.013s-2.617-6.013-5.83-6.013c-3.228 0-5.83 2.693-5.83 6.013-.015 3.32 2.602 6.013 5.83 6.013zM6.977 48.564c3.228 0 5.83-2.693 5.83-6.013s-2.617-6.013-5.83-6.013c-3.228 0-5.83 2.693-5.83 6.013-.015 3.32 2.602 6.013 5.83 6.013zm57.01 13.694c3.228 0 5.83-2.693 5.83-6.013s-2.617-6.013-5.83-6.013c-3.229 0-5.83 2.693-5.83 6.013s2.617 6.013 5.83 6.013z" fill="#94C1FF"/>
        <path d="M52.313 29.5h-2.296V11.92c0-2.724 2.173-4.943 4.835-4.943H70v2.295H54.852c-1.407 0-2.54 1.178-2.54 2.647V29.5zm5.906 27.954H39.062c-2.662 0-4.835-2.219-4.835-4.943V0h2.295v52.511c0 1.454 1.133 2.647 2.54 2.647H58.22v2.296zM21.71 17.244h-2.295v-5.325c0-1.453-1.132-2.647-2.54-2.647H1.73V6.977h15.148c2.662 0 4.834 2.219 4.834 4.942v5.325z" fill="#116FFF"/>
        <path d="M44.647 70H28.673c-2.662 0-4.835-2.219-4.835-4.942V48.824c0-3.03-2.371-5.478-5.294-5.478h-5.737v-2.295h5.737c4.177 0 7.59 3.489 7.59 7.773v16.234c0 1.469 1.132 2.647 2.54 2.647h15.973V70zm6.518-27.22c-3.856 0-6.977-3.213-6.977-7.16 0-3.948 3.137-7.161 6.977-7.161 3.856 0 6.977 3.213 6.977 7.16 0 3.948-3.137 7.161-6.977 7.161zm0-12.01c-2.586 0-4.682 2.172-4.682 4.865s2.096 4.866 4.682 4.866c2.586 0 4.682-2.173 4.682-4.866 0-2.693-2.096-4.866-4.682-4.866zm-30.601-.337c-3.856 0-6.977-3.213-6.977-7.146 0-3.932 3.136-7.16 6.977-7.16 3.84 0 6.977 3.213 6.977 7.16 0 3.948-3.137 7.146-6.977 7.146zm0-12.011c-2.586 0-4.682 2.173-4.682 4.865 0 2.693 2.096 4.85 4.682 4.85 2.586 0 4.682-2.172 4.682-4.85 0-2.677-2.096-4.865-4.682-4.865z" fill="#116FFF"/>
        <path d="M6.977 49.711C3.121 49.711 0 46.498 0 42.551c0-3.948 3.137-7.146 6.977-7.146 3.84 0 6.977 3.214 6.977 7.146s-3.137 7.16-6.977 7.16zm0-12.01c-2.586 0-4.682 2.172-4.682 4.85 0 2.677 2.096 4.865 4.682 4.865 2.586 0 4.682-2.172 4.682-4.865S9.563 37.7 6.977 37.7zm57.01 25.704c-3.856 0-6.977-3.213-6.977-7.16 0-3.948 3.136-7.16 6.977-7.16 3.856 0 6.977 3.212 6.977 7.16 0 3.947-3.121 7.16-6.977 7.16zm0-12.01c-2.586 0-4.682 2.172-4.682 4.865s2.096 4.866 4.682 4.866c2.586 0 4.682-2.173 4.682-4.866 0-2.693-2.096-4.865-4.682-4.865z" fill="#116FFF"/>
    </g>
</svg>
