<svg width="68" height="70" viewBox="0 0 68 70" xmlns="http://www.w3.org/2000/svg">
    <g fill-rule="nonzero" fill="none">
        <path d="M48.922 6.318V20.56H22.306V6.318a1.948 1.948 0 0 1 1.946-1.946h22.724a1.948 1.948 0 0 1 1.946 1.946z" fill="#CEC0FD"/>
        <path fill="#8D6E63" d="M37.919 28.868h-4.611l2.303-4.177z"/>
        <path d="M66.856 50.57v11.344H44.743V50.57a1.948 1.948 0 0 1 1.946-1.946h13.024c.038 0 .076.005.115.005.038 0 .077 0 .115-.005h4.967a1.948 1.948 0 0 1 1.946 1.946z" fill="#CEC0FD"/>
        <path fill="#8D6E63" d="M57.398 68.944h-3.202l1.6-2.901z"/>
        <path d="M26.486 50.57v11.344H4.374V50.57a1.948 1.948 0 0 1 1.945-1.946h5.004c.038 0 .076.005.115.005.039 0 .077 0 .115-.005h12.988a1.948 1.948 0 0 1 1.945 1.946z" fill="#CEC0FD"/>
        <path fill="#8D6E63" d="M17.03 68.944h-3.202l1.599-2.901z"/>
        <path d="M45.295 0H22.57a4.641 4.641 0 0 0-4.636 4.636v15.59c0 .742.602 1.344 1.345 1.344h29.307c.743 0 1.345-.602 1.345-1.345V4.636A4.641 4.641 0 0 0 45.295 0zm1.945 18.88H20.624V4.636a1.948 1.948 0 0 1 1.946-1.945h22.725a1.948 1.948 0 0 1 1.945 1.945V18.88z" fill="#08283F"/>
        <path d="M39.167 29.71c-.65.358-1.468.123-1.828-.527l-1.102-1.996-2.305-4.177-2.302 4.177-1.1 1.994a1.345 1.345 0 1 1-2.354-1.298l.383-.696 3.097-5.617 1.098-1.994a1.345 1.345 0 0 1 2.354-.002l1.104 1.996 3.101 5.617.384.694a1.345 1.345 0 0 1-.53 1.828z" fill="#08283F"/>
        <path d="M41.945 28.532c0 .743-.602 1.345-1.345 1.345H27.339a1.345 1.345 0 0 1 0-2.69h13.26c.744 0 1.346.602 1.346 1.345zm21.284 15.72H45.006a4.641 4.641 0 0 0-4.637 4.636v12.69c0 .742.603 1.345 1.346 1.345h24.803c.743 0 1.345-.603 1.345-1.346V48.888a4.641 4.641 0 0 0-4.634-4.636zm1.945 15.98H43.062V48.888a1.948 1.948 0 0 1 1.945-1.945H63.23a1.948 1.948 0 0 1 1.945 1.945v11.344z" fill="#08283F"/>
        <path d="M58.652 69.785c-.65.36-1.469.124-1.828-.526l-1.108-1.996-1.605-2.902-1.597 2.902-1.1 1.994a1.345 1.345 0 1 1-2.354-1.298l.383-.696 2.393-4.34 1.098-1.995a1.345 1.345 0 0 1 2.354 0l1.103 1.995 2.4 4.34.383.694c.36.65.126 1.468-.522 1.828z" fill="#08283F"/>
        <path d="M61.105 68.608c0 .743-.602 1.345-1.345 1.345H48.536a1.345 1.345 0 1 1 0-2.69H59.76c.743 0 1.345.602 1.345 1.345zM22.859 44.252H4.636A4.641 4.641 0 0 0 0 48.888v12.69c0 .742.602 1.345 1.345 1.345h24.803c.743 0 1.346-.603 1.346-1.346V48.888a4.641 4.641 0 0 0-4.635-4.636zm1.946 15.98H2.692V48.888a1.948 1.948 0 0 1 1.946-1.945h18.221a1.948 1.948 0 0 1 1.946 1.945v11.344z" fill="#08283F"/>
        <path d="M18.279 69.785a1.345 1.345 0 0 1-1.829-.526l-1.099-1.996-1.606-2.902-1.597 2.902-1.102 1.994a1.345 1.345 0 0 1-2.354-1.298l.383-.696 2.393-4.34 1.1-1.995a1.345 1.345 0 0 1 2.354 0l1.102 1.995 2.398 4.34.383.694c.36.65.124 1.469-.526 1.828z" fill="#08283F"/>
        <path d="M20.736 68.608c0 .743-.602 1.345-1.345 1.345H8.167a1.345 1.345 0 0 1 0-2.69H19.39c.743 0 1.345.602 1.345 1.345zm14.579-40.076v8.426c0 .743-.603 1.345-1.346 1.345H11.1v7.3c0 .698-.534 1.28-1.23 1.34-.038 0-.077.005-.115.005-.039 0-.078 0-.115-.005a1.345 1.345 0 0 1-1.23-1.34v-8.645c0-.743.602-1.346 1.345-1.346h22.87v-7.08a1.345 1.345 0 1 1 2.69 0z" fill="#08283F"/>
        <path d="M59.492 36.958v8.645c0 .698-.534 1.28-1.23 1.34-.038 0-.076.005-.115.005-.039 0-.076 0-.114-.005a1.345 1.345 0 0 1-1.231-1.34v-7.3h-22.87a1.345 1.345 0 0 1 0-2.69h24.215c.743 0 1.345.602 1.345 1.345z" fill="#08283F"/>
    </g>
</svg>
