<svg width="62" height="70" viewBox="0 0 62 70" xmlns="http://www.w3.org/2000/svg">
    <g fill-rule="nonzero" fill="none">
        <path d="M59.318 15.61a5.116 5.116 0 0 1 2.45 4.652C60.83 39.393 51.11 58.46 34.161 68.127L30.888 70l-3.273-1.873C11.495 58.945 1.017 40.623.008 20.262a5.116 5.116 0 0 1 2.45-4.652L28.912.54a3.885 3.885 0 0 1 3.952 0l26.454 15.07z" fill="#FFCB07"/>
        <path d="M33.795 68.127C17.676 58.945 7.197 40.623 6.19 20.262a5.117 5.117 0 0 1 2.45-4.652l25.34-14.435L32.863.54a3.885 3.885 0 0 0-3.952 0L2.458 15.61a5.117 5.117 0 0 0-2.45 4.652c1.009 20.36 11.487 38.683 27.607 47.865L30.888 70l3.09-1.77-.183-.103z" fill="#F0A600"/>
        <path d="M28.572 45.28a2.035 2.035 0 0 1-1.456-.592l-8.234-8.235a2.058 2.058 0 0 1 2.91-2.911l6.557 6.556 10.928-14.57a2.058 2.058 0 1 1 3.294 2.47l-12.353 16.47a2.06 2.06 0 0 1-1.646.811z" fill="#FFF"/>
    </g>
</svg>
